<svg xmlns="http://www.w3.org/2000/svg" viewBox="0 0 16.141 16.597"><g id="check-form_1_" transform="translate(-5.963)" fill="#51B905">
	<path id="Path_12" d="M18.438 8.8V1.337H7.3V15.26h5.124a.668.668 0 0 1 0 1.337H6.631a.67.67 0 0 1-.668-.668V.668A.67.67 0 0 1 6.631 0h12.476a.67.67 0 0 1 .668.668V8.8a.668.668 0 1 1-1.337 0zm3.442 1.626a.67.67 0 0 0-.947.056l-3.665 4.077-1.838-1.771a.67.67 0 0 0-.925.969l2.339 2.25a.657.657 0 0 0 .468.189h.022a.668.668 0 0 0 .468-.223l4.121-4.589a.672.672 0 0 0-.043-.958zM15.988 3.9H9.973a.668.668 0 1 0 0 1.337h6.015a.668.668 0 1 0 0-1.337zm.668 4.344a.67.67 0 0 0-.668-.668H9.973a.668.668 0 0 0 0 1.337h6.015a.67.67 0 0 0 .668-.67zm-6.683 2.9a.668.668 0 0 0 0 1.337h1.782a.668.668 0 0 0 0-1.337z"></path></g></svg>